PathFileType	4	(X/Y/Z)	D:\Share\Shared_Data\Ergonomics\Sit To Stand Pertubation\S1\Unperturbed_NoHarness.trc
DataRate	CameraRate	NumFrames	NumMarkers	Units	OrigDataRate	OrigDataStartFrame	OrigNumFrames	
100	100	12	18	m	100	1386	281
Frame#	Time	R_Thigh_Med			R_ASIS			R_Pelvis			V_Sacral			L_Pelvis			L_ASIS			Clavical			R_Acromium			L_Acromium			Sternum			Torso			R_Thigh_Lat			R_Thigh			R_Shank_Med			R_Shank_Lat			R_Shank			R_Heel			R_Toe			
		X1	Y1	Z1	X2	Y2	Z2	X3	Y3	Z3	X4	Y4	Z4	X5	Y5	Z5	X6	Y6	Z6	X7	Y7	Z7	X8	Y8	Z8	X9	Y9	Z9	X10	Y10	Z10	X11	Y11	Z11	X12	Y12	Z12	X13	Y13	Z13	X14	Y14	Z14	X15	Y15	Z15	X16	Y16	Z16	X17	Y17	Z17	X18	Y18	Z18	

1386	13.85	0.40850961	0.39513834	0.0065558085	0.21970163	0.66294061	0.098650665	0.14705432	0.70809662	0.13166098	0.021336115	0.68862372	-0.0046143289	0.14764822	0.70551758	-0.14011749	0.23743147	0.66658844	-0.1015953	0.46584543	0.89121393	-0.0046861534	0.46058707	0.99648859	0.13841673	0.39717438	0.99672113	-0.19317896	0.45254913	0.91886096	0.093066513	0.46116711	0.90836163	-0.05823838	0.41813712	0.41392749	0.1271952	0.33218329	0.56778973	0.085423256	0.32356421	0.090433128	0.065388336	0.29958469	0.098664268	0.14596008	0.37308734	0.29778882	0.14959497	0.24427536	0.032239635	0.093641289	0.44873688	0.049989803	0.1214836
1387	13.86	0.40992798	0.39485825	0.0067019172	0.22321851	0.66651898	0.098834068	0.15065561	0.71148126	0.13219579	0.02509988	0.69244415	-0.004369936	0.15105194	0.70903516	-0.14007713	0.2407149	0.67043744	-0.10136687	0.46776224	0.89728516	-0.0048673978	0.46174457	1.0022713	0.13821144	0.39785031	1.0020945	-0.19327097	0.45446179	0.92470801	0.09305732	0.46288162	0.91425159	-0.058387672	0.41980771	0.41365448	0.1272932	0.33578253	0.56883832	0.086078285	0.32370065	0.090401237	0.065369995	0.29974759	0.098639755	0.14597124	0.37397638	0.29747256	0.14972766	0.24431102	0.03231604	0.093661667	0.44836029	0.049791992	0.12144781
1388	13.87	0.4113172	0.39460242	0.0069226532	0.22671867	0.67016541	0.099010162	0.15422539	0.71487769	0.13270715	0.028862295	0.69626337	-0.0041816654	0.15447612	0.71258008	-0.14006886	0.2440414	0.67433716	-0.10111919	0.4694455	0.90371497	-0.0050354857	0.46281076	1.0081862	0.13812151	0.39841962	1.0075477	-0.19338771	0.45630521	0.93069562	0.093074211	0.46450995	0.92025842	-0.058530224	0.42141147	0.41338354	0.12748444	0.33934943	0.56987573	0.086902206	0.32383746	0.090377731	0.065362732	0.29990042	0.098606422	0.14599445	0.37481573	0.297164	0.14991602	0.24434731	0.032393013	0.093677513	0.44801233	0.049614502	0.12148259
1389	13.88	0.41267493	0.39437076	0.0072121587	0.23020717	0.6738681	0.099186714	0.15776674	0.71829181	0.13320055	0.032619698	0.70009888	-0.0040272536	0.15791997	0.71615601	-0.14008946	0.24740492	0.67827435	-0.10085457	0.47093631	0.91039819	-0.0051523352	0.46381192	1.0142176	0.13823169	0.3988923	1.0130682	-0.19353018	0.45809735	0.93679321	0.093134811	0.46604901	0.92636737	-0.058660591	0.4229483	0.41311688	0.12775789	0.34284549	0.57087292	0.08786026	0.32397351	0.090363274	0.065367386	0.30004147	0.098567337	0.14602895	0.37560339	0.29686707	0.15015291	0.24438379	0.032471024	0.093688667	0.44772433	0.049472687	0.12155567
1390	13.89	0.41399823	0.39416379	0.007563323	0.23368463	0.67761768	0.099371902	0.16128229	0.72172931	0.13367711	0.036369873	0.70396289	-0.0038908758	0.1613813	0.71976489	-0.14013448	0.2507993	0.68224066	-0.10058068	0.47228177	0.91721997	-0.0052021012	0.46475549	1.0203471	0.13855139	0.39927673	1.0186484	-0.19369901	0.4598476	0.94297607	0.093250244	0.46749695	0.93256421	-0.058774399	0.42441864	0.41286038	0.12810043	0.34622357	0.57180109	0.088861282	0.32410858	0.090358383	0.065384476	0.30016965	0.098526215	0.14607393	0.37633542	0.29658423	0.15043144	0.24442035	0.03255088	0.093695343	0.44750879	0.049368885	0.12164365
1391	13.9	0.41528409	0.39398257	0.0079690337	0.23714568	0.68140991	0.099571815	0.16477399	0.72519348	0.13413416	0.040112206	0.70786298	-0.0037620964	0.1648559	0.72340637	-0.14019919	0.25421881	0.68622852	-0.10031101	0.47352545	0.92408087	-0.0051948013	0.46562845	1.0265558	0.13901268	0.39957828	1.0242812	-0.19389532	0.46155225	0.94922668	0.093419601	0.46885535	0.93883557	-0.058868591	0.42582111	0.41262048	0.12849998	0.34943527	0.57263782	0.089757744	0.32424295	0.090363464	0.065413948	0.3002847	0.098486115	0.14612856	0.37700708	0.29631644	0.15074644	0.24445703	0.032633556	0.093697906	0.44736224	0.049296619	0.1217318
1392	13.91	0.41652939	0.39382886	0.0084229641	0.24058266	0.68524481	0.099788536	0.16824228	0.72868628	0.13456805	0.043847069	0.71180286	-0.0036342564	0.16833847	0.72707782	-0.14028075	0.25765808	0.69022974	-0.10006643	0.47470322	0.93091425	-0.005149981	0.46641226	1.032827	0.13953082	0.39980014	1.0299558	-0.19412064	0.46319272	0.95553339	0.093634415	0.4701275	0.94517041	-0.058941463	0.42715164	0.41240182	0.12894695	0.35245859	0.57337952	0.09041716	0.3243772	0.0903787	0.06545536	0.30038684	0.098449013	0.14619215	0.37761465	0.29606555	0.15109355	0.24449413	0.032719955	0.093697052	0.44727356	0.049246552	0.12181299
1393	13.92	0.41772968	0.39370428	0.0089189787	0.2439903	0.68912415	0.10001899	0.1716868	0.73220911	0.13497729	0.047575012	0.71578345	-0.0035031493	0.17182379	0.7307757	-0.14037912	0.26111069	0.69423804	-0.099877098	0.47584094	0.9376922	-0.0050839367	0.46709451	1.0391488	0.14004642	0.3999465	1.0356519	-0.19437531	0.46473758	0.96188971	0.093884842	0.47131631	0.95156152	-0.058992832	0.42840469	0.41220721	0.12943364	0.35533087	0.57405804	0.09082383	0.3245119	0.090404037	0.065508018	0.30047653	0.098416077	0.14626407	0.37815582	0.29583466	0.15146796	0.24453177	0.032810326	0.093693932	0.44722931	0.049209957	0.12188574
1394	13.93	0.41887823	0.39360999	0.0094496317	0.24736911	0.69304993	0.10025539	0.17510646	0.73576416	0.13536362	0.0512962	0.71980359	-0.0033670619	0.17530728	0.73449628	-0.14049582	0.2645672	0.69825079	-0.099783798	0.47695639	0.94441779	-0.0050075579	0.46766956	1.0455144	0.14052644	0.40002631	1.0413378	-0.19465668	0.46615076	0.96829352	0.094159889	0.47242407	0.95800519	-0.059024067	0.42957574	0.41203955	0.12995227	0.35813556	0.57473291	0.091079216	0.32464719	0.090439034	0.065570587	0.30055389	0.098387703	0.14634351	0.37863095	0.29562732	0.15186467	0.24456995	0.032903877	0.093689804	0.44721661	0.049180027	0.12195158
1395	13.94	0.41996448	0.39354575	0.010004915	0.25072702	0.69702319	0.10048695	0.17849707	0.73935474	0.13573073	0.055010303	0.72385986	-0.0032283425	0.17878513	0.73823657	-0.1406329	0.26801331	0.70227094	-0.099837906	0.47806216	0.95111047	-0.0049269671	0.46813611	1.0519211	0.14095421	0.40005579	1.0469706	-0.1949561	0.46740512	0.97474573	0.094444603	0.47345596	0.96449927	-0.059037617	0.43066205	0.41190222	0.13049399	0.3609465	0.57545911	0.091303749	0.32478229	0.090482933	0.065640968	0.30061877	0.098363304	0.14642928	0.37904297	0.2954465	0.15227832	0.24460829	0.032999123	0.093685555	0.44722421	0.049152145	0.12201306
1396	13.95	0.42097192	0.39350958	0.010571931	0.25407878	0.70104321	0.10070227	0.1818495	0.7429848	0.13608282	0.05871624	0.72794629	-0.0030951066	0.18225372	0.7419953	-0.14079195	0.27142957	0.7063103	-0.10009786	0.47916696	0.95779535	-0.004844028	0.4684939	1.0583693	0.14132129	0.40005923	1.0525	-0.19525337	0.46849533	0.98124915	0.094718102	0.47442294	0.97104053	-0.059036152	0.43166055	0.41179721	0.13105032	0.36379562	0.57626373	0.091571144	0.32491544	0.090534538	0.06571666	0.30067062	0.098341118	0.14652003	0.37939529	0.29529422	0.15270258	0.24464621	0.033094662	0.093681381	0.44724283	0.049123772	0.12207243
1397	13.96	0.42187967	0.39349863	0.011136941	0.25744318	0.70510474	0.10089049	0.18514932	0.746659	0.1364245	0.062412655	0.73205573	-0.0029790843	0.18570901	0.7457746	-0.14097302	0.27479187	0.71039246	-0.1006176	0.48027298	0.96449573	-0.004757349	0.46874124	1.0648606	0.14162129	0.40006805	1.0578772	-0.1955099	0.46944168	0.98780603	0.094956673	0.47533987	0.97762433	-0.059022125	0.43256647	0.4117236	0.13161427	0.36667816	0.57714716	0.091909622	0.32504416	0.090592331	0.065795418	0.30070819	0.09831871	0.14661441	0.37968893	0.29517038	0.15313069	0.24468268	0.033189049	0.093677032	0.44726498	0.049094093	0.12213098
